<svg xmlns="http://www.w3.org/2000/svg" viewBox="0 0 760 430">
  <defs>
    <linearGradient id="g" x1="0" x2="1"><stop stop-color="#ffe8ee"/><stop offset="1" stop-color="#e9f3ff"/></linearGradient>
    <linearGradient id="r" x1="0" x2="1"><stop stop-color="#e51d3e"/><stop offset="1" stop-color="#ff5a21"/></linearGradient>
  </defs>
  <rect width="760" height="430" rx="38" fill="url(#g)"/>
  <circle cx="625" cy="75" r="55" fill="#e51d3e" opacity=".12"/>
  <circle cx="120" cy="330" r="80" fill="#5c43e8" opacity=".08"/>
  <rect x="385" y="72" width="270" height="260" rx="24" fill="#fff" stroke="#dce5f2" stroke-width="5"/>
  <rect x="410" y="100" width="220" height="30" rx="15" fill="#f3f6fb"/>
  <circle cx="430" cy="115" r="7" fill="#e51d3e"/>
  <rect x="410" y="150" width="220" height="105" rx="16" fill="#f7f9fc"/>
  <rect x="428" y="170" width="80" height="65" rx="12" fill="#dbeafe"/>
  <rect x="520" y="170" width="90" height="13" rx="6" fill="#25334a"/>
  <rect x="520" y="194" width="70" height="11" rx="5" fill="#a9b5c8"/>
  <rect x="520" y="220" width="55" height="20" rx="10" fill="url(#r)"/>
  <circle cx="135" cy="190" r="75" fill="#ff3e55"/>
  <circle cx="135" cy="165" r="30" fill="#ffd7c5"/>
  <path d="M80 230c18-35 93-35 112 0v78H80z" fill="#f3425f"/>
  <path d="M100 305c15-44 65-44 80 0" fill="#1f2937"/>
  <rect x="150" y="200" width="95" height="55" rx="13" fill="#fff" transform="rotate(-12 150 200)"/>
  <circle cx="169" cy="215" r="8" fill="#2563eb"/>
  <rect x="184" y="209" width="43" height="8" rx="4" fill="#28364d"/>
  <rect x="184" y="224" width="30" height="7" rx="3" fill="#aab5c6"/>
  <g fill="#fff" stroke="#e7edf5" stroke-width="3">
    <rect x="535" y="286" width="150" height="44" rx="22"/>
    <rect x="78" y="78" width="160" height="44" rx="22"/>
  </g>
  <text x="610" y="314" text-anchor="middle" font-family="Arial, sans-serif" font-size="18" font-weight="700" fill="#d7193f">পণ্য বিক্রি করুন</text>
  <text x="158" y="106" text-anchor="middle" font-family="Arial, sans-serif" font-size="18" font-weight="700" fill="#d7193f">স্থানীয় মার্কেট</text>
</svg>